HIERARCHY
ROOT SimulationBone
{
	OFFSET 0.000000 0.000000 0.000000
	CHANNELS 6 Xposition Yposition Zposition Zrotation Yrotation Xrotation 
	JOINT Hips
	{
		OFFSET 0.000000 0.000000 0.000000
		CHANNELS 6 Xposition Yposition Zposition Zrotation Yrotation Xrotation 
		JOINT LeftUpLeg
		{
			OFFSET 0.103462 1.857826 10.548503
			CHANNELS 3 Zrotation Yrotation Xrotation
			JOINT LeftLeg
			{
				OFFSET 43.500000 -0.000031 0.000000
				CHANNELS 3 Zrotation Yrotation Xrotation
				JOINT LeftFoot
				{
					OFFSET 42.372200 0.000008 -0.000003
					CHANNELS 3 Zrotation Yrotation Xrotation
					JOINT LeftToe
					{
						OFFSET 17.300003 0.000000 0.000002
						CHANNELS 3 Zrotation Yrotation Xrotation
						End Site
						{
							OFFSET 0.000000 0.000000 0.000000
						}
					}
				}
			}
		}
		JOINT RightUpLeg
		{
			OFFSET 0.103456 1.857828 -10.548503
			CHANNELS 3 Zrotation Yrotation Xrotation
			JOINT RightLeg
			{
				OFFSET 43.500042 -0.000019 0.000010
				CHANNELS 3 Zrotation Yrotation Xrotation
				JOINT RightFoot
				{
					OFFSET 42.372253 0.000000 0.000013
					CHANNELS 3 Zrotation Yrotation Xrotation
					JOINT RightToe
					{
						OFFSET 17.299976 -0.000010 0.000008
						CHANNELS 3 Zrotation Yrotation Xrotation
						End Site
						{
							OFFSET 0.000000 0.000000 0.000000
						}
					}
				}
			}
		}
		JOINT Spine
		{
			OFFSET 6.901965 -2.603735 -0.000001
			CHANNELS 3 Zrotation Yrotation Xrotation
			JOINT Spine1
			{
				OFFSET 12.588106 -0.000003 0.000000
				CHANNELS 3 Zrotation Yrotation Xrotation
				JOINT Spine2
				{
					OFFSET 12.343198 0.000019 -0.000002
					CHANNELS 3 Zrotation Yrotation Xrotation
					JOINT Neck
					{
						OFFSET 25.832905 -0.000013 0.000001
						CHANNELS 3 Zrotation Yrotation Xrotation
						JOINT Head
						{
							OFFSET 11.766598 0.000013 -0.000001
							CHANNELS 3 Zrotation Yrotation Xrotation
							End Site
							{
								OFFSET 0.000000 0.000000 0.000000
							}
						}
					}
					JOINT LeftShoulder
					{
						OFFSET 19.745911 -1.480387 6.000106
						CHANNELS 3 Zrotation Yrotation Xrotation
						JOINT LeftArm
						{
							OFFSET 11.284126 -0.000005 -0.000031
							CHANNELS 3 Zrotation Yrotation Xrotation
							JOINT LeftForeArm
							{
								OFFSET 33.000053 -0.000022 0.000026
								CHANNELS 3 Zrotation Yrotation Xrotation
								JOINT LeftHand
								{
									OFFSET 25.200005 0.000041 0.000016
									CHANNELS 3 Zrotation Yrotation Xrotation
									End Site
									{
										OFFSET 0.000000 0.000000 0.000000
									}
								}
							}
						}
					}
					JOINT RightShoulder
					{
						OFFSET 19.746105 -1.480383 -6.000075
						CHANNELS 3 Zrotation Yrotation Xrotation
						JOINT RightArm
						{
							OFFSET 11.284141 -0.000009 -0.000009
							CHANNELS 3 Zrotation Yrotation Xrotation
							JOINT RightForeArm
							{
								OFFSET 33.000092 0.000011 0.000021
								CHANNELS 3 Zrotation Yrotation Xrotation
								JOINT RightHand
								{
									OFFSET 25.199780 0.000133 0.000423
									CHANNELS 3 Zrotation Yrotation Xrotation
									End Site
									{
										OFFSET 0.000000 0.000000 0.000000
									}
								}
							}
						}
					}
				}
			}
		}
	}
}
MOTION
Frames: 14
Frame Time: 0.016667
-20.471796 0.000000 -264.556673 0.000000 267.446436 0.000000 1.006138 91.812759 0.165302 93.552862 -0.721746 179.927042 -178.379720 -0.436601 177.586271 -11.819368 -2.681521 -3.633721 82.881681 2.852491 1.308615 21.454553 0.003082 -0.000001 177.940348 4.844902 177.718626 -16.715500 0.691775 -0.782811 83.245621 1.182613 3.091955 21.454562 -0.003095 -0.000014 6.688256 -0.648815 0.535726 3.357854 -1.312717 1.052749 3.039719 -1.306192 1.060658 13.635565 5.073979 0.809674 -16.784982 -1.936593 1.754632 -145.759691 -74.998055 -36.493045 -7.269188 63.430128 38.170363 -24.269054 -14.961939 1.128451 3.232928 -15.005405 -1.767744 -176.428595 72.928105 5.046007 1.629476 -59.447362 -41.551684 -29.792335 17.979131 -1.442247 6.375894 0.930894 -11.342767 
-20.375985 0.000000 -264.557088 0.000000 267.545385 0.000000 0.956238 91.794608 0.170836 93.629390 -0.757504 179.873118 -178.398311 -0.344441 177.528913 -11.925710 -2.677772 -3.577063 82.881247 2.827114 1.373530 21.454550 0.003079 -0.000002 177.841848 4.930758 177.756397 -17.004842 0.657502 -0.794071 83.310883 1.204301 3.160353 21.454559 -0.003099 -0.000016 6.739848 -0.674401 0.514697 3.461086 -1.363710 1.009353 3.142928 -1.357449 1.017568 13.553473 5.067789 0.795911 -16.915051 -1.936274 1.746193 -146.268283 -75.101422 -35.969328 -6.792178 63.341732 39.928014 -23.833215 -14.388060 1.084595 3.565046 -16.904845 -1.750726 -176.409103 72.963329 5.066529 2.018384 -59.346718 -42.428107 -29.939650 17.888748 -1.439287 6.507908 0.074234 -11.253026 
-20.277493 0.000000 -264.581736 0.000000 267.613689 0.000000 0.930290 91.775742 0.178809 93.718584 -0.791825 179.855977 -178.402164 -0.255993 177.509185 -12.025164 -2.679906 -3.539048 82.880875 2.813996 1.435486 21.454551 0.003084 -0.000002 177.748146 5.009998 177.805083 -17.311480 0.616502 -0.807056 83.372969 1.227472 3.229374 21.454558 -0.003105 -0.000017 6.796645 -0.702654 0.491504 3.574772 -1.419975 0.961437 3.256602 -1.414005 0.969996 13.457122 5.142561 0.771523 -17.032899 -1.995686 1.752035 -146.710904 -75.208527 -35.513101 -6.233024 63.181570 41.792501 -23.609413 -14.001773 1.057497 3.806335 -18.698495 -1.915758 -176.296513 72.964414 5.182207 2.282471 -59.158732 -43.252157 -30.132748 17.795819 -1.437280 6.527091 -0.178502 -11.214317 
-20.176304 0.000000 -264.629686 0.000000 267.652365 0.000000 0.918416 91.755334 0.187679 93.814931 -0.827970 179.865159 -178.406951 -0.166519 177.508276 -12.129236 -2.684826 -3.514339 82.880199 2.809588 1.495336 21.454552 0.003091 -0.000002 177.640001 5.087635 177.861262 -17.646828 0.569051 -0.827514 83.430968 1.255515 3.295835 21.454557 -0.003110 -0.000018 6.858263 -0.733029 0.468482 3.698113 -1.480480 0.913676 3.379936 -1.474800 0.922608 13.357187 5.252780 0.738089 -17.146667 -2.076467 1.757999 -147.043997 -75.308869 -35.169192 -5.685513 62.971229 43.545961 -23.568410 -13.771326 1.042508 3.987915 -20.195539 -2.167479 -176.157873 72.951884 5.324453 2.451814 -58.915708 -43.971678 -30.377114 17.718209 -1.437259 6.442002 -0.006640 -11.200924 
-20.072404 0.000000 -264.700007 0.000000 267.662419 0.000000 0.910748 91.732559 0.195822 93.912941 -0.869193 179.890214 -178.428406 -0.071297 177.507327 -12.249429 -2.689406 -3.497607 82.878846 2.810341 1.553935 21.454553 0.003095 -0.000001 177.498161 5.168710 177.921442 -18.022293 0.515342 -0.861169 83.483974 1.291829 3.356559 21.454558 -0.003111 -0.000018 6.924317 -0.764986 0.447967 3.830299 -1.544215 0.870752 3.512113 -1.538796 0.880074 13.264393 5.352945 0.697367 -17.264461 -2.140313 1.749779 -147.221980 -75.392075 -34.984455 -5.234773 62.736501 44.978467 -23.681651 -13.664821 1.037050 4.132681 -21.205355 -2.408927 -176.059819 72.946403 5.425095 2.559886 -58.649473 -44.537551 -30.678282 17.673772 -1.440429 6.260343 0.410377 -11.189288 
-19.965777 0.000000 -264.791767 0.000000 267.644844 0.000000 0.900035 91.706956 0.202038 94.008243 -0.917235 179.922075 -178.478234 0.032397 177.490296 -12.394332 -2.691315 -3.484342 82.876776 2.813249 1.611972 21.454553 0.003093 -0.000000 177.309640 5.256531 177.984452 -18.443030 0.455015 -0.913636 83.530308 1.340014 3.409473 21.454559 -0.003105 -0.000018 6.994192 -0.798151 0.432103 3.970066 -1.610504 0.836957 3.651866 -1.605289 0.846680 13.188975 5.412831 0.652273 -17.388936 -2.158111 1.717876 -147.221476 -75.453438 -34.982848 -4.939223 62.496451 45.950057 -23.924590 -13.646923 1.039323 4.257505 -21.622159 -2.571311 -176.053329 72.961558 5.431934 2.632205 -58.385250 -44.911096 -31.034161 17.674025 -1.447651 6.005577 0.911225 -11.145582 
-19.856407 0.000000 -264.904037 0.000000 267.600627 0.000000 0.889493 91.679527 0.206937 94.100927 -0.967866 179.957219 -178.551827 0.139298 177.452618 -12.560888 -2.691489 -3.473268 82.875322 2.817471 1.669480 21.454553 0.003091 0.000000 177.086533 5.347394 178.058701 -18.889216 0.385826 -0.990184 83.565191 1.404461 3.456913 21.454560 -0.003100 -0.000017 7.066372 -0.832791 0.422252 4.114373 -1.679930 0.815024 3.796158 -1.674845 0.825163 13.138908 5.463249 0.609661 -17.501072 -2.137276 1.672495 -147.112082 -75.511132 -35.092601 -4.784863 62.231600 46.568354 -24.287357 -13.668831 1.046270 4.377836 -21.678990 -2.704647 -176.128954 72.982090 5.354487 2.653990 -58.123514 -45.088215 -31.411844 17.705221 -1.457507 5.764705 1.406998 -10.992201 
-19.744280 0.000000 -265.035885 0.000000 267.530742 0.000000 0.882977 91.651231 0.211229 94.191843 -1.016949 179.993417 -178.641656 0.243749 177.387006 -12.742454 -2.690883 -3.460681 82.874605 2.820691 1.727206 21.454554 0.003094 0.000000 176.842209 5.437267 178.152325 -19.341441 0.305234 -1.094559 83.585042 1.488796 3.502824 21.454559 -0.003103 -0.000017 7.139767 -0.869196 0.419227 4.261035 -1.753112 0.806576 3.942808 -1.748073 0.817151 13.115643 5.538792 0.574990 -17.580972 -2.094824 1.626538 -146.967785 -75.582861 -35.237503 -4.753691 61.922661 46.966324 -24.753118 -13.693380 1.055024 4.503380 -21.632845 -2.869141 -176.259642 72.991530 5.220336 2.602062 -57.864569 -45.077869 -31.774430 17.756910 -1.468462 5.613433 1.852258 -10.684111 
-19.629380 0.000000 -265.186381 0.000000 267.436159 0.000000 0.876438 91.621407 0.214250 94.280375 -1.066709 -179.971987 -178.744889 0.346499 177.263681 -12.929680 -2.687209 -3.429962 82.868540 2.812528 1.789396 21.454555 0.003096 0.000000 176.569952 5.527703 178.262487 -19.806995 0.211473 -1.224696 83.594158 1.592778 3.553225 21.454558 -0.003108 -0.000017 7.215905 -0.907088 0.422413 4.413079 -1.829511 0.810353 4.094841 -1.824446 0.821387 13.097008 5.628075 0.544524 -17.626895 -2.049950 1.583713 -146.783371 -75.661662 -35.423120 -4.867122 61.595832 47.146666 -25.262820 -13.743387 1.066053 4.610891 -21.499161 -3.038980 -176.408705 72.997691 5.067296 2.460027 -57.632847 -44.906426 -32.100143 17.857000 -1.481717 5.514651 2.302003 -10.357216 
-19.511692 0.000000 -265.354593 0.000000 267.317836 0.000000 0.864775 91.588984 0.215283 94.365352 -1.120787 -179.942364 -178.861181 0.450460 177.059422 -13.115334 -2.677911 -3.368872 82.851739 2.785297 1.858990 21.454554 0.003093 -0.000001 176.259403 5.620304 178.377329 -20.297781 0.103229 -1.373612 83.598528 1.712791 3.614616 21.454556 -0.003111 -0.000018 7.296291 -0.946376 0.430825 4.573500 -1.908938 0.824349 4.255251 -1.903789 0.835868 13.063740 5.710498 0.514679 -17.644085 -2.014249 1.544761 -146.555065 -75.735055 -35.653735 -5.140640 61.276972 47.088369 -25.765614 -13.848206 1.080775 4.676237 -21.238372 -3.168724 -176.558393 73.011631 4.913763 2.220402 -57.450569 -44.593294 -32.377925 18.030826 -1.498778 5.417561 2.799623 -10.136190 
-19.391200 0.000000 -265.539592 0.000000 267.176731 0.000000 0.846603 91.552887 0.214671 94.444894 -1.182155 -179.923510 -178.995079 0.561201 176.799734 -13.303388 -2.662990 -3.295541 82.827920 2.750093 1.930174 21.454553 0.003092 -0.000001 175.905716 5.711096 178.460112 -20.817537 -0.019619 -1.520665 83.602962 1.835596 3.693315 21.454555 -0.003111 -0.000019 7.379739 -0.988276 0.443437 4.739952 -1.993793 0.846474 4.421690 -1.988511 0.858510 13.031828 5.774684 0.491827 -17.647675 -1.966703 1.507651 -146.365309 -75.793580 -35.845458 -5.535289 60.946042 46.797531 -26.285183 -14.003390 1.099197 4.706172 -20.831358 -3.221442 -176.775295 73.032682 4.691296 1.907889 -57.307833 -44.115552 -32.624059 18.255141 -1.518515 5.335731 3.242060 -9.914887 
-19.267890 0.000000 -265.740445 0.000000 267.013793 0.000000 0.820593 91.512377 0.213126 94.514238 -1.253185 -179.916848 -179.155426 0.683053 176.522634 -13.499549 -2.645379 -3.232915 82.801564 2.721323 1.997106 21.454553 0.003098 -0.000000 175.502904 5.796066 178.480440 -21.368045 -0.155432 -1.646521 83.608851 1.947928 3.790942 21.454555 -0.003111 -0.000019 7.464423 -1.034085 0.458749 4.908828 -2.086601 0.873692 4.590546 -2.081152 0.886286 13.016127 5.816437 0.482037 -17.652524 -1.889527 1.471522 -146.299070 -75.833597 -35.911669 -6.011138 60.580593 46.296924 -26.843449 -14.196148 1.120771 4.711625 -20.289501 -3.192058 -177.108136 73.060472 4.349819 1.542513 -57.192488 -43.448141 -32.860659 18.496857 -1.539145 5.285334 3.535659 -9.585265 
-19.141746 0.000000 -265.956222 0.000000 266.829970 0.000000 0.781934 91.468079 0.211767 94.557796 -1.334586 -179.903877 -179.363527 0.812495 176.267580 -13.705268 -2.636756 -3.192812 82.770970 2.707931 2.062611 21.454553 0.003104 0.000001 175.035332 5.878208 178.458008 -21.951190 -0.297857 -1.750793 83.605080 2.046078 3.890458 21.454557 -0.003112 -0.000018 7.548668 -1.084105 0.473415 5.076813 -2.187825 0.899306 4.758507 -2.182218 0.912511 12.991613 5.850948 0.479953 -17.662372 -1.810418 1.443047 -146.358984 -75.870665 -35.849160 -6.579264 60.195548 45.648782 -27.380684 -14.414194 1.144064 4.685672 -19.726208 -3.193076 -177.449216 73.108995 4.000197 1.092535 -57.115846 -42.599199 -33.106138 18.732099 -1.559686 5.223389 3.770264 -9.265847 
-19.012753 0.000000 -266.185993 0.000000 266.626206 0.000000 0.726101 91.420792 0.211822 94.563771 -1.425544 -179.867622 -179.636050 0.944141 176.058866 -13.922046 -2.646680 -3.178984 82.734154 2.713617 2.130692 21.454551 0.003103 0.000002 174.491686 5.961280 178.416176 -22.567460 -0.438765 -1.837051 83.578942 2.129049 3.974321 21.454558 -0.003112 -0.000018 7.632147 -1.138360 0.484056 5.243305 -2.297362 0.916542 4.924973 -2.291652 0.930419 12.928949 5.897215 0.479356 -17.678180 -1.761792 1.430138 -146.508839 -75.917561 -35.694485 -7.257726 59.808939 44.905878 -27.847199 -14.649271 1.167475 4.637275 -19.241162 -3.330344 -177.699122 73.187935 3.744724 0.527402 -57.084121 -41.598245 -33.382088 18.950141 -1.579966 5.119305 4.055466 -9.083629 
